<?xml version="1.0" encoding="utf-8"?>
<svg viewBox="0 0 528 528" xmlns="http://www.w3.org/2000/svg">
  <g transform="matrix(1.0641770362854004, 0, 0, 1.0641859769821167, 264.0011065006583, 264.0011370182374)" id="vU0NTzfPn_OQxY-bI2Nzk" style="">
    <g style="" vector-effect="non-scaling-stroke">
      <g transform="matrix(1 0 0 1 0 0)" id="zIecZQGcfhTssHz65ACFW">
        <path style="stroke: none; stroke-width: 1; stroke-dasharray: none; stroke-linecap: butt; stroke-dashoffset: 0; stroke-linejoin: miter; stroke-miterlimit: 4; fill: rgb(252,161,125); fill-rule: nonzero; opacity: 1;" vector-effect="non-scaling-stroke" transform=" translate(-248.08, -248.08)" d="M 248.083 0.002 C 111.07 0.002 0 111.062 0 248.085 C 0 385.086 111.07 496.155 248.083 496.155 C 385.089 496.155 496.158 385.08599999999996 496.158 248.08499999999998 C 496.158 111.061 385.089 0.002 248.083 0.002 z" stroke-linecap="round"/>
      </g>
      <g transform="matrix(1 0 0 1 -68.58 -91.97)" id="NeB_Rivr1lXcmLthkOPEl">
        <path style="stroke: none; stroke-width: 1; stroke-dasharray: none; stroke-linecap: butt; stroke-dashoffset: 0; stroke-linejoin: miter; stroke-miterlimit: 4; fill: rgb(178,140,98); fill-rule: nonzero; opacity: 1;" vector-effect="non-scaling-stroke" transform=" translate(-179.5, -156.11)" d="M 227.386 165.386 L 229.386 160.386 C 249.386 135.386 221.386 100.386 221.386 100.386 C 199.386 56.385999999999996 163.386 60.385999999999996 163.386 60.385999999999996 C 113.386 46.385999999999996 76.386 94.386 76.386 94.386 C 57.385999999999996 116.386 91.386 134.386 91.386 134.386 L 202.386 254.386 L 288.38599999999997 237.386 C 265.386 172.386 227.386 165.386 227.386 165.386 z" stroke-linecap="round"/>
      </g>
      <g transform="matrix(1 0 0 1 -101.26 -41.25)" id="8hq9hHW37qHhxaodDUVQf">
        <path style="stroke: none; stroke-width: 1; stroke-dasharray: none; stroke-linecap: butt; stroke-dashoffset: 0; stroke-linejoin: miter; stroke-miterlimit: 4; fill: rgb(233,194,156); fill-rule: nonzero; opacity: 1;" vector-effect="non-scaling-stroke" transform=" translate(-146.82, -206.83)" d="M 199.386 221.386 C 132.386 192.386 91.05199999999999 117.386 91.05199999999999 117.386 C 84.377 133.21099999999998 83.42099999999999 148.906 80.05199999999999 162.386 C 77.886 171.052 73.12199999999999 175.313 73.511 181.136 C 73.761 184.886 82.85499999999999 184.708 82.93299999999999 185.356 C 83.511 190.136 83.314 191.474 82.761 192.636 C 81.511 195.261 84.761 197.261 84.761 197.261 C 84.761 197.261 83.407 199.927 84.573 202.261 C 85.01199999999999 203.14 86.66199999999999 203.716 87.573 204.94899999999998 C 90.40499999999999 208.78099999999998 89.886 213.38699999999997 89.886 213.38699999999997 C 89.886 222.38699999999997 91.886 224.63699999999997 91.886 224.63699999999997 C 94.886 233.13699999999997 125.386 231.38699999999997 125.386 231.38699999999997 C 142.718 236.05299999999997 135.052 252.05299999999997 135.052 252.05299999999997 C 127.71799999999999 264.053 100.38399999999999 263.38699999999994 100.38399999999999 263.38699999999994 C 141.04899999999998 317.38899999999995 208.45999999999998 294.1929999999999 218.38599999999997 269.38699999999994 C 227.327 247.039 199.386 221.386 199.386 221.386 z" stroke-linecap="round"/>
      </g>
      <g transform="matrix(1 0 0 1 -70.57 110.69)" id="HX1tuKSakJwAqJ9s6cX_O">
        <path style="stroke: none; stroke-width: 1; stroke-dasharray: none; stroke-linecap: butt; stroke-dashoffset: 0; stroke-linejoin: miter; stroke-miterlimit: 4; fill: rgb(247,247,247); fill-rule: nonzero; opacity: 1;" vector-effect="non-scaling-stroke" transform=" translate(-177.51, -358.77)" d="M 330.386 311.387 L 287.386 323.387 L 282.386 261.387 L 320.386 253.887 L 313.386 239.887 C 269.386 223.887 199.38600000000002 221.387 199.38600000000002 221.387 C 219.38600000000002 255.387 182.38600000000002 276.387 182.38600000000002 276.387 C 129.38600000000002 308.387 71.38600000000002 264.387 71.38600000000002 264.387 C 40.77400000000003 259.03 21.876000000000026 308.725 14.691000000000024 332.348 C 49.190000000000026 427.871 140.65800000000002 496.156 248.08400000000003 496.156 C 271.02000000000004 496.156 293.221 493.029 314.303 487.204 C 323.324 454.27 322.387 407.38800000000003 322.387 407.38800000000003 C 357.386 372.387 330.386 311.387 330.386 311.387 z" stroke-linecap="round"/>
      </g>
      <g transform="matrix(1 0 0 1 111.46 -24.05)" id="etrsqr0xk1qCwk2MeHY28">
        <path style="stroke: none; stroke-width: 1; stroke-dasharray: none; stroke-linecap: butt; stroke-dashoffset: 0; stroke-linejoin: miter; stroke-miterlimit: 4; fill: rgb(233,194,156); fill-rule: nonzero; opacity: 1;" vector-effect="non-scaling-stroke" transform=" translate(-359.54, -224.02)" d="M 435.052 242.054 C 425.052 202.054 379.052 143.388 370.386 129.386 C 361.72 115.38399999999999 342.386 145.386 342.386 145.386 C 354.384 186.721 381.386 253.386 381.386 253.386 C 352.386 244.386 279.886 255.386 279.886 255.386 C 263.886 259.38599999999997 288.386 322.38599999999997 288.386 322.38599999999997 C 324.386 322.38599999999997 442.384 280.05199999999996 444.386 274.38599999999997 C 446.386 268.719 435.052 242.054 435.052 242.054 z" stroke-linecap="round"/>
      </g>
      <g transform="matrix(1 0 0 1 -73.71 130.18)" id="TXwhkA7ikAk_5xEEJA0yY">
        <path style="stroke: none; stroke-width: 1; stroke-dasharray: none; stroke-linecap: butt; stroke-dashoffset: 0; stroke-linejoin: miter; stroke-miterlimit: 4; fill: rgb(239,228,228); fill-rule: nonzero; opacity: 1;" vector-effect="non-scaling-stroke" transform=" translate(-174.37, -378.26)" d="M 249.382 355.319 C 217.67700000000002 344.12800000000004 126.29 281.649 126.29 281.649 C 97.382 251.809 85.25900000000001 262.067 85.25900000000001 262.067 C 60.88600000000001 259.385 68.38600000000001 282.051 68.38600000000001 282.051 C 73.71900000000001 300.71799999999996 92.72000000000001 353.453 92.72000000000001 353.453 C 105.07200000000002 389.822 142.669 450.92999999999995 161.669 480.676 C 188.579 490.678 217.69 496.154 248.08300000000003 496.154 C 259.394 496.154 270.52200000000005 495.382 281.43300000000005 493.915 L 249.382 355.319 z" stroke-linecap="round"/>
      </g>
      <g transform="matrix(1 0 0 1 -69.72 129.6)" id="hq05FbARceWtamUnFPLKW">
        <path style="stroke: none; stroke-width: 1; stroke-dasharray: none; stroke-linecap: butt; stroke-dashoffset: 0; stroke-linejoin: miter; stroke-miterlimit: 4; fill: rgb(255,255,255); fill-rule: nonzero; opacity: 1;" vector-effect="non-scaling-stroke" transform=" translate(-178.35, -377.68)" d="M 255.048 360.712 C 184.381 336.712 132.79000000000002 281.649 132.79000000000002 281.649 C 111.71900000000002 258.718 109.71900000000002 258.718 87.71900000000002 259.385 C 65.71900000000002 260.051 69.37800000000001 272.324 69.37800000000001 272.324 C 69.37800000000001 282.582 99.22000000000001 353.45300000000003 99.22000000000001 353.45300000000003 C 111.99500000000002 391.06800000000004 151.775 455.14500000000004 170.05400000000003 483.61800000000005 C 194.59100000000004 491.7420000000001 220.82100000000003 496.1530000000001 248.08300000000003 496.1530000000001 C 261.519 496.1530000000001 274.70000000000005 495.07000000000005 287.55800000000005 493.0130000000001 L 255.048 360.712 z" stroke-linecap="round"/>
      </g>
      <g transform="matrix(1 0 0 1 17.83 113.02)" id="7LCBdxov-AE7EnjfBAUvL">
        <path style="stroke: none; stroke-width: 1; stroke-dasharray: none; stroke-linecap: butt; stroke-dashoffset: 0; stroke-linejoin: miter; stroke-miterlimit: 4; fill: rgb(239,228,228); fill-rule: nonzero; opacity: 1;" vector-effect="non-scaling-stroke" transform=" translate(-265.91, -361.1)" d="M 247.393 231.111 C 237.906 230.57899999999998 228.883 230.206 221.267 229.945 L 244.218 267.385 C 237.218 301.385 236.218 323.385 236.218 323.385 C 237.218 455.385 272.215 492.256 272.215 492.256 L 299.06899999999996 490.89799999999997 C 302.63899999999995 490.15299999999996 306.18199999999996 489.335 309.69399999999996 488.438 C 317.488 449.447 269.989 232.377 247.393 231.111 z" stroke-linecap="round"/>
      </g>
      <g transform="matrix(1 0 0 1 35.25 113.02)" id="P7QQKLCNBZBaz-nL4s2XW">
        <path style="stroke: none; stroke-width: 1; stroke-dasharray: none; stroke-linecap: butt; stroke-dashoffset: 0; stroke-linejoin: miter; stroke-miterlimit: 4; fill: rgb(255,255,255); fill-rule: nonzero; opacity: 1;" vector-effect="non-scaling-stroke" transform=" translate(-283.33, -361.1)" d="M 332.886 313.887 C 332.886 313.887 301.386 324.887 291.386 320.887 C 281.386 316.887 277.386 274.387 282.386 261.387 C 287.386 248.387 318.636 250.637 318.636 250.637 C 318.636 250.637 317.886 243.137 312.136 238.887 C 303.689 232.644 251.52000000000004 230.838 225.43500000000003 229.947 L 248.38600000000002 267.387 C 241.38600000000002 301.387 240.38600000000002 323.387 240.38600000000002 323.387 C 241.38600000000002 455.387 276.382 492.25800000000004 276.382 492.25800000000004 L 297.759 491.17600000000004 C 303.345 490.04100000000005 308.85900000000004 488.70700000000005 314.302 487.20300000000003 C 323.32300000000004 454.269 322.386 407.38700000000006 322.386 407.38700000000006 C 357.386 372.387 332.886 313.887 332.886 313.887 z" stroke-linecap="round"/>
      </g>
      <g transform="matrix(1 0 0 1 -101.35 136.57)" id="SpTvVz08sZ0_St4BtqS6y">
        <path style="stroke: none; stroke-width: 1; stroke-dasharray: none; stroke-linecap: butt; stroke-dashoffset: 0; stroke-linejoin: miter; stroke-miterlimit: 4; fill: rgb(239,228,228); fill-rule: nonzero; opacity: 1;" vector-effect="non-scaling-stroke" transform=" translate(-146.73, -384.65)" d="M 70.386 274.387 C 70.386 274.387 129.017 418.11 209.49099999999999 493.16200000000003 C 213.97799999999998 493.86300000000006 218.505 494.449 223.069 494.90600000000006 C 207.05 477.615 111.542 372.245 70.386 274.387 z" stroke-linecap="round"/>
      </g>
      <g transform="matrix(1 0 0 1 -74.69 85.31)" id="wZtOCLSpH08hRH4dqkf4k">
        <path style="stroke: none; stroke-width: 1; stroke-dasharray: none; stroke-linecap: butt; stroke-dashoffset: 0; stroke-linejoin: miter; stroke-miterlimit: 4; fill: rgb(239,228,228); fill-rule: nonzero; opacity: 1;" vector-effect="non-scaling-stroke" transform=" translate(-173.39, -333.39)" d="M 241.386 384.387 C 241.386 384.387 182.386 367.387 104.386 273.387 C 104.386 273.387 161.386 362.387 242.386 393.387 L 241.386 384.387 z" stroke-linecap="round"/>
      </g>
      <g transform="matrix(1 0 0 1 41.77 169.24)" id="ZEx0ksuAY2afvWJRGfr1B">
        <path style="stroke: none; stroke-width: 1; stroke-dasharray: none; stroke-linecap: butt; stroke-dashoffset: 0; stroke-linejoin: miter; stroke-miterlimit: 4; fill: rgb(239,228,228); fill-rule: nonzero; opacity: 1;" vector-effect="non-scaling-stroke" transform=" translate(-289.85, -417.31)" d="M 322.386 407.387 C 322.386 407.387 310.386 430.387 290.386 398.387 C 290.386 398.387 272.886 365.887 270.886 361.887 L 255.88600000000002 365.387 C 255.88600000000002 365.387 257.636 476.637 317.636 472.637 C 317.636 472.637 327.386 429.387 322.386 407.387 z" stroke-linecap="round"/>
      </g>
      <g transform="matrix(1 0 0 1 42.57 167.48)" id="LCz77sZ-1WAXLLBxgJUU9">
        <path style="stroke: none; stroke-width: 1; stroke-dasharray: none; stroke-linecap: butt; stroke-dashoffset: 0; stroke-linejoin: miter; stroke-miterlimit: 4; fill: rgb(255,255,255); fill-rule: nonzero; opacity: 1;" vector-effect="non-scaling-stroke" transform=" translate(-290.65, -415.56)" d="M 323.136 413.637 C 323.136 413.637 310.386 436.387 290.386 404.387 C 290.386 404.387 272.386 368.387 270.386 364.387 L 256.714 366.965 C 260.23 401.231 273.636 469.63699999999994 318.63599999999997 466.63699999999994 C 318.636 466.637 328.136 435.637 323.136 413.637 z" stroke-linecap="round"/>
      </g>
      <g transform="matrix(1 0 0 1 -93.03 -95.41)" id="cJqkAAlewXSN21SsY6qE_">
        <path style="stroke: none; stroke-width: 1; stroke-dasharray: none; stroke-linecap: butt; stroke-dashoffset: 0; stroke-linejoin: miter; stroke-miterlimit: 4; fill: rgb(244,233,223); fill-rule: nonzero; opacity: 1;" vector-effect="non-scaling-stroke" transform=" translate(-155.05, -152.67)" d="M 85.886 133.552 C 85.886 133.552 80.219 141.719 78.719 166.052 C 78.719 166.052 112.386 179.386 227.386 165.386 L 231.386 156.886 C 231.386 156.886 115.886 156.552 85.886 133.552 z" stroke-linecap="round"/>
      </g>
      <g transform="matrix(1 0 0 1 -160.4 -50.64)" id="p5r9grGaW8AhEATx8MC6e">
        <path style="stroke: none; stroke-width: 1; stroke-dasharray: none; stroke-linecap: butt; stroke-dashoffset: 0; stroke-linejoin: miter; stroke-miterlimit: 4; fill: rgb(224,185,153); fill-rule: nonzero; opacity: 1;" vector-effect="non-scaling-stroke" transform=" translate(-87.68, -197.44)" d="M 91.052 197.302 C 89.46900000000001 196.719 84.302 196.886 84.302 196.886 C 85.09400000000001 197.386 84.51100000000001 198.011 84.51100000000001 198.011 C 84.677 197.636 91.052 197.302 91.052 197.302 z" stroke-linecap="round"/>
      </g>
      <g transform="matrix(1 0 0 1 -162.38 -65.88)" id="P0fwIOuSRHMIEKut5OnUS">
        <path style="stroke: none; stroke-width: 1; stroke-dasharray: none; stroke-linecap: butt; stroke-dashoffset: 0; stroke-linejoin: miter; stroke-miterlimit: 4; fill: rgb(224,185,153); fill-rule: nonzero; opacity: 1;" vector-effect="non-scaling-stroke" transform=" translate(-85.7, -182.2)" d="M 87.719 179.052 C 87.719 179.052 89.30199999999999 183.052 82.93299999999999 185.356 C 82.932 185.355 90.906 184.114 87.719 179.052 z" stroke-linecap="round"/>
      </g>
      <g transform="matrix(1 0 0 1 60.01 -130.82)" id="nfDPKLCwk44WkLhndwdMR">
        <path style="stroke: none; stroke-width: 1; stroke-dasharray: none; stroke-linecap: butt; stroke-dashoffset: 0; stroke-linejoin: miter; stroke-miterlimit: 4; fill: rgb(216,219,186); fill-rule: nonzero; opacity: 1;" vector-effect="non-scaling-stroke" transform=" translate(-3.77, -75.13)" d="M 0 150.25 L 0 0 L 7.537 0 L 7.537 150.25 z" stroke-linecap="round"/>
      </g>
      <g transform="matrix(1 0 0 1 60.3 -62.13)" id="APqJK5gfiasoPbDeQoDRZ">
        <path style="stroke: none; stroke-width: 1; stroke-dasharray: none; stroke-linecap: butt; stroke-dashoffset: 0; stroke-linejoin: miter; stroke-miterlimit: 4; fill: rgb(216,219,186); fill-rule: nonzero; opacity: 1;" vector-effect="non-scaling-stroke" transform=" translate(-308.37, -185.95)" d="M 308.083 169.356 C 304.89500000000004 169.356 300.634 176.114 300.634 191.219 C 300.634 206.32399999999998 316.11400000000003 206.32399999999998 316.11400000000003 191.219 C 316.11400000000003 176.114 311.272 169.356 308.083 169.356 z" stroke-linecap="round"/>
      </g>
      <g transform="matrix(1 0 0 1 59.68 -205.19)" id="cVnJ_vEIeGf9qZDB1R14s">
        <path style="stroke: none; stroke-width: 1; stroke-dasharray: none; stroke-linecap: butt; stroke-dashoffset: 0; stroke-linejoin: miter; stroke-miterlimit: 4; fill: rgb(196,198,167); fill-rule: nonzero; opacity: 1;" vector-effect="non-scaling-stroke" transform=" translate(-307.76, -42.88)" d="M 307.761 35.983 C 297.505 35.983 293.136 39.07299999999999 293.136 42.885 C 293.136 46.696 297.505 49.786 307.761 49.786 C 318.01500000000004 49.786 322.386 46.695 322.386 42.885000000000005 C 322.386 39.073 318.015 35.983 307.761 35.983 z" stroke-linecap="round"/>
      </g>
      <g transform="matrix(1 0 0 1 127.16 7.24)" id="uerptvvnbTb1erinJ8tGX">
        <path style="stroke: none; stroke-width: 1; stroke-dasharray: none; stroke-linecap: butt; stroke-dashoffset: 0; stroke-linejoin: miter; stroke-miterlimit: 4; fill: rgb(109,109,104); fill-rule: nonzero; opacity: 1;" vector-effect="non-scaling-stroke" transform=" translate(-375.24, -255.32)" d="M 391.766 191.366 C 390.582 190.88600000000002 389.22700000000003 191.455 388.745 192.64100000000002 L 357.438 316.25100000000003 C 356.95599999999996 317.439 357.526 318.79100000000005 358.71299999999997 319.27200000000005 C 358.99899999999997 319.38900000000007 359.29299999999995 319.4440000000001 359.585 319.4440000000001 C 360.5 319.4440000000001 361.368 318.89700000000005 361.734 317.99700000000007 L 393.041 194.3880000000001 C 393.524 193.2 392.954 191.848 391.766 191.366 z" stroke-linecap="round"/>
      </g>
      <g transform="matrix(1 0 0 1 168.61 7.24)" id="mF6hEoGFGo2GxvDCH28mh">
        <path style="stroke: none; stroke-width: 1; stroke-dasharray: none; stroke-linecap: butt; stroke-dashoffset: 0; stroke-linejoin: miter; stroke-miterlimit: 4; fill: rgb(109,109,104); fill-rule: nonzero; opacity: 1;" vector-effect="non-scaling-stroke" transform=" translate(-416.69, -255.32)" d="M 434.497 316.251 L 403.188 192.64099999999996 C 402.70599999999996 191.45399999999995 401.351 190.88499999999996 400.167 191.36599999999996 C 398.97999999999996 191.84699999999995 398.40799999999996 193.19999999999996 398.89099999999996 194.38699999999994 L 430.2 317.996 C 430.565 318.89599999999996 431.432 319.443 432.348 319.443 C 432.639 319.443 432.934 319.388 433.22 319.27099999999996 C 434.407 318.792 434.978 317.438 434.497 316.251 z" stroke-linecap="round"/>
      </g>
      <g transform="matrix(1 0 0 1 147.94 81.37)" id="yqjBMHaG2OlpG6icoGWe9">
        <path style="stroke: none; stroke-width: 1; stroke-dasharray: none; stroke-linecap: butt; stroke-dashoffset: 0; stroke-linejoin: miter; stroke-miterlimit: 4; fill: rgb(109,109,104); fill-rule: nonzero; opacity: 1;" vector-effect="non-scaling-stroke" transform=" translate(-396.02, -329.44)" d="M 341.381 315.675 C 341.381 315.675 357.46099999999996 343.214 396.306 343.214 C 435.15099999999995 343.214 450.65099999999995 315.675 450.65099999999995 315.675 L 341.381 315.675 z" stroke-linecap="round"/>
      </g>
      <g transform="matrix(1 0 0 1 110.3 -64.77)" id="8Shw9SHIOXr3sP_UiMKpY">
        <path style="stroke: none; stroke-width: 1; stroke-dasharray: none; stroke-linecap: butt; stroke-dashoffset: 0; stroke-linejoin: miter; stroke-miterlimit: 4; fill: rgb(216,219,186); fill-rule: nonzero; opacity: 1;" vector-effect="non-scaling-stroke" transform=" translate(-358.38, -183.31)" d="M 404.263 171.97 C 404.265 171.993 404.26399999999995 172.017 404.26599999999996 172.041 C 402.698 170.444 400.36499999999995 169.43 397.75499999999994 169.43 C 393.0319999999999 169.43 389.2029999999999 172.745 389.2029999999999 176.833 C 389.2029999999999 180.923 393.0319999999999 184.237 397.75499999999994 184.237 C 397.8689999999999 184.237 397.98099999999994 184.227 398.09299999999996 184.22299999999998 C 396.15799999999996 185.39 393.89899999999994 186.07399999999998 391.47399999999993 186.07399999999998 C 387.89899999999994 186.07399999999998 380.3179999999999 181.53199999999998 367.50999999999993 181.53199999999998 C 357.3639999999999 181.53199999999998 336.78999999999996 187.61999999999998 307.7939999999999 187.61999999999998 L 307.7939999999999 197.18599999999998 C 331.03399999999993 197.18599999999998 352.42099999999994 190.45299999999997 362.6789999999999 190.13199999999998 C 381.6579999999999 189.539 387.41599999999994 193.03099999999998 393.0209999999999 194.96299999999997 C 398.6259999999999 196.89499999999995 408.9639999999999 192.07599999999996 408.9639999999999 183.27099999999996 C 408.964 178.853 407.166 174.856 404.263 171.97 z" stroke-linecap="round"/>
      </g>
      <g transform="matrix(1 0 0 1 -7.73 7.24)" id="s4cXdMO4yGP3qeAhu5CuR">
        <path style="stroke: none; stroke-width: 1; stroke-dasharray: none; stroke-linecap: butt; stroke-dashoffset: 0; stroke-linejoin: miter; stroke-miterlimit: 4; fill: rgb(109,109,104); fill-rule: nonzero; opacity: 1;" vector-effect="non-scaling-stroke" transform=" translate(-240.35, -255.32)" d="M 258.149 316.251 L 226.842 192.642 C 226.36 191.45499999999998 225.00400000000002 190.886 223.82100000000003 191.367 C 222.63300000000004 191.84799999999998 222.06300000000002 193.201 222.54400000000004 194.38799999999998 L 253.85300000000004 317.99699999999996 C 254.21900000000005 318.89699999999993 255.08600000000004 319.44399999999996 256.002 319.44399999999996 C 256.29200000000003 319.44399999999996 256.588 319.38899999999995 256.874 319.27199999999993 C 258.059 318.792 258.632 317.438 258.149 316.251 z" stroke-linecap="round"/>
      </g>
      <g transform="matrix(1 0 0 1 -49.19 7.24)" id="iGuSRadnTaJKUPpDa9b3M">
        <path style="stroke: none; stroke-width: 1; stroke-dasharray: none; stroke-linecap: butt; stroke-dashoffset: 0; stroke-linejoin: miter; stroke-miterlimit: 4; fill: rgb(109,109,104); fill-rule: nonzero; opacity: 1;" vector-effect="non-scaling-stroke" transform=" translate(-198.89, -255.32)" d="M 215.42 191.366 C 214.236 190.88600000000002 212.88199999999998 191.455 212.399 192.64100000000002 L 181.09 316.25 C 180.608 317.438 181.18 318.79 182.366 319.271 C 182.65200000000002 319.38800000000003 182.947 319.44300000000004 183.23800000000003 319.44300000000004 C 184.15300000000002 319.44300000000004 185.02100000000002 318.896 185.38600000000002 317.99600000000004 L 216.69500000000002 194.38700000000006 C 217.179 193.2 216.606 191.848 215.42 191.366 z" stroke-linecap="round"/>
      </g>
      <g transform="matrix(1 0 0 1 -28.51 81.37)" id="aVN8Ww1tCeMFI3G2j2GGr">
        <path style="stroke: none; stroke-width: 1; stroke-dasharray: none; stroke-linecap: butt; stroke-dashoffset: 0; stroke-linejoin: miter; stroke-miterlimit: 4; fill: rgb(109,109,104); fill-rule: nonzero; opacity: 1;" vector-effect="non-scaling-stroke" transform=" translate(-219.57, -329.44)" d="M 164.936 315.675 C 164.936 315.675 180.436 343.214 219.282 343.214 C 258.127 343.214 274.206 315.675 274.206 315.675 L 164.936 315.675 z" stroke-linecap="round"/>
      </g>
      <g transform="matrix(1 0 0 1 9.13 -64.77)" id="f4ApKAIZ-e2ZF1BItrMol">
        <path style="stroke: none; stroke-width: 1; stroke-dasharray: none; stroke-linecap: butt; stroke-dashoffset: 0; stroke-linejoin: miter; stroke-miterlimit: 4; fill: rgb(216,219,186); fill-rule: nonzero; opacity: 1;" vector-effect="non-scaling-stroke" transform=" translate(-257.21, -183.31)" d="M 248.077 181.532 C 235.269 181.532 227.689 186.074 224.114 186.074 C 221.689 186.074 219.429 185.39000000000001 217.495 184.223 C 217.607 184.227 217.719 184.23700000000002 217.833 184.23700000000002 C 222.556 184.23700000000002 226.385 180.92300000000003 226.385 176.83300000000003 C 226.385 172.74500000000003 222.55599999999998 169.43000000000004 217.833 169.43000000000004 C 215.224 169.43000000000004 212.89 170.44500000000002 211.322 172.04100000000003 C 211.324 172.01700000000002 211.323 171.99300000000002 211.325 171.97000000000003 C 208.422 174.85700000000003 206.624 178.85400000000004 206.624 183.27200000000002 C 206.624 192.07800000000003 216.963 196.89600000000002 222.567 194.96400000000003 C 228.17100000000002 193.03200000000004 233.93 189.54000000000002 252.909 190.13300000000004 C 263.166 190.45300000000003 284.554 197.18700000000004 307.794 197.18700000000004 L 307.794 187.62100000000004 C 278.798 187.62 258.224 181.532 248.077 181.532 z" stroke-linecap="round"/>
      </g>
      <g transform="matrix(1 0 0 1 86.5 -147.97)" id="uhCQp5Yla2JbjyUTFaxln">
        <path style="stroke: none; stroke-width: 1; stroke-dasharray: none; stroke-linecap: butt; stroke-dashoffset: 0; stroke-linejoin: miter; stroke-miterlimit: 4; fill: rgb(233,194,156); fill-rule: nonzero; opacity: 1;" vector-effect="non-scaling-stroke" transform=" translate(-334.58, -100.11)" d="M 370.386 129.386 C 361.72 115.384 361.386 107.386 361.386 107.386 C 358.386 72.386 344.886 55.385999999999996 344.886 55.385999999999996 C 337.886 49.135999999999996 327.71900000000005 51.385999999999996 310.886 51.05199999999999 C 303.65700000000004 50.90899999999999 298.21900000000005 51.36999999999999 298.21900000000005 59.218999999999994 C 298.21900000000005 64.264 304.1410000000001 64.393 304.95400000000006 64.387 C 299.1140000000001 64.4 296.9050000000001 65.582 297.0520000000001 72.052 C 297.1570000000001 76.635 301.91300000000007 77.67 305.4670000000001 77.802 C 297.0100000000001 78.61500000000001 297.7190000000001 82.274 297.7190000000001 85.21900000000001 C 297.7190000000001 90.88600000000001 307.8860000000001 91.21900000000001 307.8860000000001 91.21900000000001 C 302.0520000000001 91.552 300.5450000000001 91.43700000000001 299.7190000000001 97.052 C 298.8860000000001 102.718 311.3860000000001 103.71900000000001 311.3860000000001 103.71900000000001 C 320.3860000000001 110.71900000000001 342.3860000000001 145.38600000000002 342.3860000000001 145.38600000000002 C 352.886 155.886 379.052 143.388 370.386 129.386 z" stroke-linecap="round"/>
      </g>
      <g transform="matrix(1 0 0 1 64.68 -183.82)" id="6omoG5bChsDPV_R44O2TU">
        <path style="stroke: none; stroke-width: 1; stroke-dasharray: none; stroke-linecap: butt; stroke-dashoffset: 0; stroke-linejoin: miter; stroke-miterlimit: 4; fill: rgb(214,172,138); fill-rule: nonzero; opacity: 1;" vector-effect="non-scaling-stroke" transform=" translate(-312.76, -64.26)" d="M 303.802 64.386 L 321.636 64.636 L 321.71900000000005 63.885999999999996 z" stroke-linecap="round"/>
      </g>
      <g transform="matrix(1 0 0 1 65.39 -170.65)" id="dcrUMs5h4dCLns-ZxTehu">
        <path style="stroke: none; stroke-width: 1; stroke-dasharray: none; stroke-linecap: butt; stroke-dashoffset: 0; stroke-linejoin: miter; stroke-miterlimit: 4; fill: rgb(214,172,138); fill-rule: nonzero; opacity: 1;" vector-effect="non-scaling-stroke" transform=" translate(-313.47, -77.43)" d="M 305.219 77.886 L 321.63599999999997 77.719 L 321.719 76.969 z" stroke-linecap="round"/>
      </g>
      <g transform="matrix(1 0 0 1 66.22 -157.07)" id="nQd9gLTMIR4I-0kgn_yVQ">
        <path style="stroke: none; stroke-width: 1; stroke-dasharray: none; stroke-linecap: butt; stroke-dashoffset: 0; stroke-linejoin: miter; stroke-miterlimit: 4; fill: rgb(214,172,138); fill-rule: nonzero; opacity: 1;" vector-effect="non-scaling-stroke" transform=" translate(-314.3, -91.01)" d="M 306.886 91.302 L 321.636 91.38600000000001 L 321.71900000000005 90.63600000000001 z" stroke-linecap="round"/>
      </g>
      <g transform="matrix(1 0 0 1 -167.3 -142.57)" id="EJdB4Ll6LxcPmbXAKfUtY">
        <path style="stroke: none; stroke-width: 1; stroke-dasharray: none; stroke-linecap: butt; stroke-dashoffset: 0; stroke-linejoin: miter; stroke-miterlimit: 4; fill: rgb(163,125,87); fill-rule: nonzero; opacity: 1;" vector-effect="non-scaling-stroke" transform=" translate(-80.78, -105.51)" d="M 90.136 80.386 C 90.136 80.386 68.636 95.886 70.636 110.386 C 70.636 110.386 74.136 126.136 86.386 130.636 L 91.05199999999999 117.386 C 91.052 117.386 81.636 90.136 90.136 80.386 z" stroke-linecap="round"/>
      </g>
    </g>
  </g>
</svg>