<?xml version="1.0" standalone="yes"?>
<svg xmlns="http://www.w3.org/2000/svg" width="1952" height="1952">
<path style="fill:#ffffff; stroke:none;" d="M0 0L0 1952L1952 1952L1952 0L0 0z"/>
<path style="fill:#010101; stroke:none;" d="M128 128L128 352L352 352L352 128L128 128M512 128L512 160L480 160L480 192L576 192L576 224L608 224L608 192L576 192L576 160L608 160L608 128L512 128M640 128L640 160L672 160L672 128L640 128M736 128L736 160L800 160L800 192L768 192L768 256L736 256L736 288L704 288L704 352L672 352L672 192L640 192L640 352L672 352L672 384L640 384L640 448L672 448L672 480L640 480L640 512L672 512L672 640L576 640L576 672L608 672L608 704L576 704L576 736L544 736L544 704L512 704L512 736L480 736L480 704L416 704L416 736L384 736L384 768L512 768L512 800L576 800L576 832L544 832L544 864L480 864L480 896L448 896L448 928L416 928L416 896L384 896L384 864L416 864L416 832L384 832L384 800L352 800L352 768L320 768L320 736L352 736L352 704L384 704L384 672L544 672L544 640L480 640L480 576L512 576L512 512L480 512L480 576L448 576L448 608L416 608L416 544L352 544L352 512L288 512L288 480L256 480L256 448L192 448L192 416L224 416L224 384L128 384L128 416L160 416L160 448L128 448L128 480L160 480L160 512L192 512L192 544L224 544L224 576L192 576L192 640L160 640L160 544L128 544L128 704L160 704L160 736L128 736L128 800L160 800L160 832L128 832L128 864L160 864L160 896L128 896L128 928L160 928L160 896L192 896L192 928L256 928L256 960L224 960L224 992L192 992L192 1024L160 1024L160 1056L128 1056L128 1152L160 1152L160 1056L224 1056L224 1024L256 1024L256 1088L288 1088L288 1120L352 1120L352 1088L320 1088L320 1056L384 1056L384 1088L448 1088L448 1120L416 1120L416 1152L448 1152L448 1120L480 1120L480 1248L448 1248L448 1344L480 1344L480 1312L576 1312L576 1344L512 1344L512 1376L480 1376L480 1408L448 1408L448 1440L416 1440L416 1376L384 1376L384 1344L416 1344L416 1312L384 1312L384 1280L416 1280L416 1248L384 1248L384 1280L320 1280L320 1312L352 1312L352 1344L320 1344L320 1376L352 1376L352 1408L320 1408L320 1440L352 1440L352 1408L384 1408L384 1440L416 1440L416 1472L448 1472L448 1504L384 1504L384 1472L224 1472L224 1440L160 1440L160 1376L224 1376L224 1408L256 1408L256 1440L288 1440L288 1248L352 1248L352 1216L448 1216L448 1184L352 1184L352 1152L288 1152L288 1248L256 1248L256 1312L224 1312L224 1280L192 1280L192 1344L160 1344L160 1376L128 1376L128 1504L160 1504L160 1536L224 1536L224 1568L256 1568L256 1536L224 1536L224 1504L384 1504L384 1536L320 1536L320 1568L384 1568L384 1696L416 1696L416 1728L384 1728L384 1824L480 1824L480 1792L512 1792L512 1824L640 1824L640 1760L672 1760L672 1728L704 1728L704 1664L768 1664L768 1632L800 1632L800 1600L832 1600L832 1632L864 1632L864 1664L800 1664L800 1760L768 1760L768 1728L736 1728L736 1760L704 1760L704 1792L672 1792L672 1824L768 1824L768 1792L800 1792L800 1824L864 1824L864 1792L800 1792L800 1760L864 1760L864 1728L896 1728L896 1696L928 1696L928 1760L896 1760L896 1824L1056 1824L1056 1792L1120 1792L1120 1824L1600 1824L1600 1792L1472 1792L1472 1728L1408 1728L1408 1760L1376 1760L1376 1792L1344 1792L1344 1696L1312 1696L1312 1600L1280 1600L1280 1568L1312 1568L1312 1440L1472 1440L1472 1248L1440 1248L1440 1216L1376 1216L1376 1248L1408 1248L1408 1280L1344 1280L1344 1248L1312 1248L1312 1184L1344 1184L1344 1088L1312 1088L1312 1120L1280 1120L1280 1312L1248 1312L1248 1248L1216 1248L1216 1184L1248 1184L1248 1120L1216 1120L1216 1088L1184 1088L1184 1120L1152 1120L1152 1056L1184 1056L1184 1024L1216 1024L1216 1056L1312 1056L1312 1024L1344 1024L1344 1056L1376 1056L1376 1024L1344 1024L1344 992L1280 992L1280 1024L1248 1024L1248 992L1216 992L1216 928L1184 928L1184 864L1216 864L1216 704L1184 704L1184 736L1152 736L1152 704L1120 704L1120 736L1152 736L1152 768L1088 768L1088 800L1120 800L1120 864L1056 864L1056 800L1024 800L1024 864L992 864L992 832L960 832L960 800L928 800L928 768L896 768L896 672L928 672L928 640L896 640L896 672L864 672L864 608L896 608L896 544L928 544L928 512L896 512L896 416L928 416L928 480L1024 480L1024 512L992 512L992 544L1024 544L1024 608L992 608L992 736L1088 736L1088 672L1056 672L1056 640L1088 640L1088 608L1056 608L1056 544L1088 544L1088 512L1056 512L1056 480L1088 480L1088 416L1184 416L1184 384L1216 384L1216 352L1248 352L1248 320L1280 320L1280 384L1248 384L1248 480L1280 480L1280 544L1312 544L1312 608L1280 608L1280 576L1248 576L1248 608L1280 608L1280 640L1216 640L1216 576L1184 576L1184 544L1248 544L1248 512L1184 512L1184 480L1216 480L1216 448L1184 448L1184 480L1152 480L1152 448L1120 448L1120 480L1152 480L1152 544L1120 544L1120 576L1184 576L1184 608L1120 608L1120 672L1280 672L1280 736L1248 736L1248 832L1280 832L1280 800L1312 800L1312 864L1248 864L1248 960L1280 960L1280 928L1312 928L1312 864L1344 864L1344 800L1472 800L1472 768L1440 768L1440 736L1472 736L1472 704L1440 704L1440 544L1536 544L1536 512L1504 512L1504 480L1472 480L1472 448L1440 448L1440 480L1376 480L1376 544L1408 544L1408 640L1376 640L1376 704L1440 704L1440 736L1344 736L1344 704L1312 704L1312 608L1344 608L1344 544L1312 544L1312 512L1344 512L1344 480L1312 480L1312 448L1280 448L1280 416L1312 416L1312 256L1344 256L1344 352L1376 352L1376 384L1344 384L1344 416L1472 416L1472 384L1504 384L1504 224L1536 224L1536 256L1568 256L1568 224L1536 224L1536 160L1504 160L1504 128L1440 128L1440 160L1472 160L1472 192L1504 192L1504 224L1472 224L1472 256L1440 256L1440 288L1408 288L1408 352L1376 352L1376 256L1344 256L1344 192L1376 192L1376 128L1344 128L1344 192L1312 192L1312 128L1216 128L1216 192L1184 192L1184 224L1248 224L1248 192L1312 192L1312 256L1216 256L1216 352L1184 352L1184 256L1088 256L1088 352L1120 352L1120 320L1152 320L1152 384L1056 384L1056 256L992 256L992 192L1024 192L1024 224L1152 224L1152 192L1120 192L1120 128L1056 128L1056 160L1088 160L1088 192L1024 192L1024 128L864 128L864 160L800 160L800 128L736 128M1152 128L1152 160L1184 160L1184 128L1152 128z"/>
<path style="fill:#7f7f7f; stroke:none;" d="M1600 128L1600 352L1601 352L1601 194L1601 149L1600 128z"/>
<path style="fill:#010101; stroke:none;" d="M1601 128L1601 352L1824 352L1824 128L1601 128z"/>
<path style="fill:#ffffff; stroke:none;" d="M160 160L160 320L320 320L320 160L160 160M896 160L896 192L832 192L832 288L864 288L864 224L928 224L928 192L992 192L992 160L896 160M1632 160L1632 320L1792 320L1792 160L1632 160z"/>
<path style="fill:#010101; stroke:none;" d="M192 192L192 288L288 288L288 192L192 192M384 192L384 224L416 224L416 192L384 192M1664 192L1664 288L1760 288L1760 192L1664 192M448 224L448 256L480 256L480 288L448 288L448 352L416 352L416 320L384 320L384 384L256 384L256 416L288 416L288 448L320 448L320 480L352 480L352 448L384 448L384 416L448 416L448 448L480 448L480 480L576 480L576 608L608 608L608 448L576 448L576 384L608 384L608 288L576 288L576 352L544 352L544 288L512 288L512 256L544 256L544 224L512 224L512 256L480 256L480 224L448 224z"/>
<path style="fill:#ffffff; stroke:none;" d="M928 288L928 384L1024 384L1024 288L928 288M1440 288L1440 352L1472 352L1472 288L1440 288M480 320L480 352L448 352L448 416L480 416L480 448L544 448L544 352L512 352L512 320L480 320M736 320L736 384L768 384L768 416L704 416L704 384L672 384L672 416L704 416L704 448L736 448L736 480L768 480L768 544L736 544L736 576L704 576L704 608L736 608L736 640L704 640L704 704L672 704L672 672L640 672L640 704L672 704L672 736L640 736L640 768L608 768L608 736L576 736L576 768L608 768L608 832L576 832L576 864L608 864L608 896L576 896L576 960L544 960L544 992L512 992L512 928L480 928L480 992L416 992L416 1024L448 1024L448 1088L512 1088L512 1120L544 1120L544 1216L608 1216L608 1184L576 1184L576 1152L672 1152L672 1120L640 1120L640 1088L672 1088L672 1024L640 1024L640 992L672 992L672 960L736 960L736 992L704 992L704 1024L768 1024L768 1056L736 1056L736 1088L704 1088L704 1120L736 1120L736 1152L704 1152L704 1216L672 1216L672 1184L640 1184L640 1216L672 1216L672 1248L640 1248L640 1280L608 1280L608 1344L576 1344L576 1376L640 1376L640 1408L576 1408L576 1472L608 1472L608 1536L576 1536L576 1568L544 1568L544 1504L512 1504L512 1472L544 1472L544 1376L512 1376L512 1472L480 1472L480 1504L512 1504L512 1536L448 1536L448 1568L480 1568L480 1600L512 1600L512 1568L544 1568L544 1600L576 1600L576 1632L512 1632L512 1664L544 1664L544 1696L512 1696L512 1728L480 1728L480 1696L448 1696L448 1664L416 1664L416 1696L448 1696L448 1728L416 1728L416 1792L480 1792L480 1760L512 1760L512 1792L544 1792L544 1760L576 1760L576 1792L608 1792L608 1728L576 1728L576 1632L608 1632L608 1664L672 1664L672 1536L640 1536L640 1504L672 1504L672 1472L704 1472L704 1504L736 1504L736 1472L768 1472L768 1504L800 1504L800 1536L768 1536L768 1600L800 1600L800 1536L864 1536L864 1504L896 1504L896 1536L928 1536L928 1504L960 1504L960 1536L1056 1536L1056 1600L1088 1600L1088 1664L1120 1664L1120 1568L1152 1568L1152 1504L1120 1504L1120 1472L1152 1472L1152 1376L1184 1376L1184 1408L1216 1408L1216 1440L1184 1440L1184 1600L1152 1600L1152 1632L1184 1632L1184 1696L1216 1696L1216 1760L1248 1760L1248 1792L1280 1792L1280 1760L1248 1760L1248 1696L1280 1696L1280 1632L1248 1632L1248 1536L1280 1536L1280 1376L1248 1376L1248 1312L1216 1312L1216 1280L1184 1280L1184 1312L1152 1312L1152 1344L1120 1344L1120 1312L1056 1312L1056 1248L1088 1248L1088 1280L1120 1280L1120 1248L1184 1248L1184 1184L1216 1184L1216 1152L1184 1152L1184 1184L1152 1184L1152 1216L1120 1216L1120 1056L1152 1056L1152 992L1184 992L1184 960L1120 960L1120 928L1088 928L1088 992L1120 992L1120 1024L1056 1024L1056 1056L1024 1056L1024 1152L992 1152L992 1088L928 1088L928 1056L864 1056L864 1152L896 1152L896 1184L864 1184L864 1248L896 1248L896 1184L928 1184L928 1216L960 1216L960 1248L992 1248L992 1216L960 1216L960 1152L992 1152L992 1184L1024 1184L1024 1152L1088 1152L1088 1184L1056 1184L1056 1216L1024 1216L1024 1312L992 1312L992 1344L1024 1344L1024 1376L928 1376L928 1344L960 1344L960 1312L928 1312L928 1344L896 1344L896 1280L864 1280L864 1376L832 1376L832 1248L800 1248L800 1152L832 1152L832 800L800 800L800 768L864 768L864 800L896 800L896 768L864 768L864 704L832 704L832 640L800 640L800 608L864 608L864 576L832 576L832 512L864 512L864 544L896 544L896 512L864 512L864 480L832 480L832 512L800 512L800 480L768 480L768 448L832 448L832 416L800 416L800 352L832 352L832 384L864 384L864 416L896 416L896 384L864 384L864 352L896 352L896 320L864 320L864 352L832 352L832 320L800 320L800 352L768 352L768 320L736 320z"/>
<path style="fill:#010101; stroke:none;" d="M960 320L960 352L992 352L992 320L960 320M1536 320L1536 352L1568 352L1568 320L1536 320M1568 384L1568 544L1600 544L1600 416L1632 416L1632 384L1568 384M1728 384L1728 416L1760 416L1760 448L1632 448L1632 480L1664 480L1664 544L1632 544L1632 576L1664 576L1664 672L1728 672L1728 640L1696 640L1696 608L1728 608L1728 576L1760 576L1760 608L1792 608L1792 640L1760 640L1760 672L1792 672L1792 704L1728 704L1728 736L1824 736L1824 544L1696 544L1696 480L1760 480L1760 512L1792 512L1792 480L1824 480L1824 416L1760 416L1760 384L1728 384z"/>
<path style="fill:#ffffff; stroke:none;" d="M320 416L320 448L352 448L352 416L320 416M992 416L992 448L1024 448L1024 416L992 416M672 480L672 512L704 512L704 480L672 480M224 512L224 544L256 544L256 576L224 576L224 640L256 640L256 576L288 576L288 672L256 672L256 736L224 736L224 704L192 704L192 736L160 736L160 800L192 800L192 864L256 864L256 896L288 896L288 864L256 864L256 832L224 832L224 800L256 800L256 768L288 768L288 832L352 832L352 864L320 864L320 896L352 896L352 864L384 864L384 832L352 832L352 800L320 800L320 768L288 768L288 736L320 736L320 704L352 704L352 672L384 672L384 640L352 640L352 608L320 608L320 576L352 576L352 544L320 544L320 576L288 576L288 512L224 512M1664 544L1664 576L1696 576L1696 544L1664 544z"/>
<path style="fill:#010101; stroke:none;" d="M1504 608L1504 640L1472 640L1472 672L1536 672L1536 640L1568 640L1568 672L1632 672L1632 640L1568 640L1568 608L1504 608M320 640L320 672L352 672L352 640L320 640M736 640L736 672L768 672L768 640L736 640M704 704L704 736L768 736L768 704L704 704M928 704L928 736L960 736L960 704L928 704M1664 704L1664 768L1632 768L1632 736L1600 736L1600 768L1632 768L1632 864L1600 864L1600 896L1536 896L1536 960L1504 960L1504 1024L1536 1024L1536 1056L1568 1056L1568 1088L1504 1088L1504 1120L1536 1120L1536 1152L1568 1152L1568 1184L1504 1184L1504 1152L1472 1152L1472 1184L1504 1184L1504 1216L1536 1216L1536 1312L1568 1312L1568 1344L1600 1344L1600 1408L1568 1408L1568 1376L1536 1376L1536 1344L1504 1344L1504 1376L1536 1376L1536 1408L1568 1408L1568 1440L1600 1440L1600 1472L1536 1472L1536 1440L1504 1440L1504 1472L1536 1472L1536 1600L1504 1600L1504 1632L1536 1632L1536 1728L1504 1728L1504 1760L1632 1760L1632 1792L1696 1792L1696 1728L1728 1728L1728 1664L1696 1664L1696 1600L1728 1600L1728 1632L1760 1632L1760 1600L1728 1600L1728 1504L1824 1504L1824 1280L1760 1280L1760 1312L1792 1312L1792 1376L1760 1376L1760 1344L1664 1344L1664 1376L1632 1376L1632 1312L1568 1312L1568 1248L1600 1248L1600 1280L1632 1280L1632 1216L1568 1216L1568 1184L1600 1184L1600 1152L1664 1152L1664 1120L1696 1120L1696 1216L1728 1216L1728 1248L1760 1248L1760 1216L1728 1216L1728 1120L1696 1120L1696 1088L1632 1088L1632 1056L1728 1056L1728 1088L1760 1088L1760 1152L1792 1152L1792 1248L1824 1248L1824 1152L1792 1152L1792 1120L1824 1120L1824 1024L1792 1024L1792 1088L1760 1088L1760 1056L1728 1056L1728 992L1824 992L1824 896L1792 896L1792 864L1824 864L1824 768L1792 768L1792 864L1760 864L1760 896L1792 896L1792 960L1728 960L1728 928L1696 928L1696 832L1728 832L1728 768L1696 768L1696 704L1664 704M192 736L192 800L224 800L224 736L192 736z"/>
<path style="fill:#ffffff; stroke:none;" d="M512 736L512 768L544 768L544 736L512 736z"/>
<path style="fill:#010101; stroke:none;" d="M1504 736L1504 800L1536 800L1536 768L1568 768L1568 736L1504 736M704 768L704 864L736 864L736 800L768 800L768 768L704 768M448 800L448 832L480 832L480 800L448 800z"/>
<path style="fill:#ffffff; stroke:none;" d="M1152 800L1152 832L1184 832L1184 800L1152 800M1664 800L1664 832L1696 832L1696 800L1664 800M896 832L896 864L864 864L864 928L896 928L896 896L992 896L992 864L928 864L928 832L896 832z"/>
<path style="fill:#010101; stroke:none;" d="M1440 832L1440 864L1376 864L1376 992L1408 992L1408 1152L1376 1152L1376 1184L1440 1184L1440 1056L1472 1056L1472 1024L1440 1024L1440 960L1408 960L1408 928L1440 928L1440 864L1472 864L1472 832L1440 832M1504 832L1504 864L1536 864L1536 832L1504 832z"/>
<path style="fill:#ffffff; stroke:none;" d="M1024 864L1024 896L1056 896L1056 864L1024 864z"/>
<path style="fill:#010101; stroke:none;" d="M640 896L640 960L672 960L672 896L640 896M704 896L704 928L736 928L736 896L704 896z"/>
<path style="fill:#ffffff; stroke:none;" d="M288 928L288 1024L384 1024L384 928L288 928M928 928L928 1024L1024 1024L1024 928L928 928M1568 928L1568 1024L1664 1024L1664 928L1568 928z"/>
<path style="fill:#010101; stroke:none;" d="M128 960L128 992L160 992L160 960L128 960M320 960L320 992L352 992L352 960L320 960M576 960L576 992L544 992L544 1056L512 1056L512 1088L576 1088L576 1120L608 1120L608 1056L640 1056L640 1024L608 1024L608 960L576 960M768 960L768 992L800 992L800 960L768 960M960 960L960 992L992 992L992 960L960 960M1600 960L1600 992L1632 992L1632 960L1600 960M480 992L480 1024L512 1024L512 992L480 992M768 1088L768 1120L800 1120L800 1088L768 1088M192 1120L192 1184L224 1184L224 1216L256 1216L256 1152L224 1152L224 1120L192 1120M928 1120L928 1152L960 1152L960 1120L928 1120M736 1152L736 1184L768 1184L768 1152L736 1152z"/>
<path style="fill:#ffffff; stroke:none;" d="M320 1184L320 1216L352 1216L352 1184L320 1184z"/>
<path style="fill:#010101; stroke:none;" d="M736 1216L736 1248L704 1248L704 1280L672 1280L672 1344L640 1344L640 1376L672 1376L672 1344L704 1344L704 1376L736 1376L736 1344L768 1344L768 1280L736 1280L736 1248L768 1248L768 1216L736 1216M1664 1248L1664 1280L1696 1280L1696 1312L1728 1312L1728 1280L1696 1280L1696 1248L1664 1248z"/>
<path style="fill:#ffffff; stroke:none;" d="M1312 1280L1312 1312L1280 1312L1280 1344L1312 1344L1312 1376L1344 1376L1344 1408L1376 1408L1376 1344L1440 1344L1440 1312L1344 1312L1344 1280L1312 1280z"/>
<path style="fill:#010101; stroke:none;" d="M1184 1312L1184 1376L1216 1376L1216 1312L1184 1312M1056 1344L1056 1376L1088 1376L1088 1344L1056 1344M864 1376L864 1408L800 1408L800 1504L864 1504L864 1440L896 1440L896 1376L864 1376z"/>
<path style="fill:#ffffff; stroke:none;" d="M1728 1376L1728 1440L1696 1440L1696 1408L1632 1408L1632 1472L1664 1472L1664 1504L1696 1504L1696 1472L1792 1472L1792 1408L1760 1408L1760 1376L1728 1376z"/>
<path style="fill:#010101; stroke:none;" d="M640 1408L640 1472L672 1472L672 1408L640 1408M704 1408L704 1440L768 1440L768 1408L704 1408M928 1408L928 1472L896 1472L896 1504L928 1504L928 1472L992 1472L992 1504L1024 1504L1024 1440L1088 1440L1088 1408L928 1408z"/>
<path style="fill:#ffffff; stroke:none;" d="M192 1472L192 1504L224 1504L224 1472L192 1472z"/>
<path style="fill:#010101; stroke:none;" d="M1440 1472L1440 1504L1344 1504L1344 1536L1376 1536L1376 1600L1408 1600L1408 1568L1504 1568L1504 1536L1440 1536L1440 1504L1472 1504L1472 1472L1440 1472M1056 1504L1056 1536L1088 1536L1088 1568L1120 1568L1120 1504L1056 1504z"/>
<path style="fill:#ffffff; stroke:none;" d="M1568 1504L1568 1536L1600 1536L1600 1504L1568 1504M384 1536L384 1568L416 1568L416 1536L384 1536z"/>
<path style="fill:#010101; stroke:none;" d="M608 1536L608 1568L576 1568L576 1600L640 1600L640 1536L608 1536M1760 1536L1760 1568L1792 1568L1792 1664L1760 1664L1760 1696L1824 1696L1824 1536L1760 1536z"/>
<path style="fill:#ffffff; stroke:none;" d="M864 1568L864 1600L896 1600L896 1568L864 1568M928 1568L928 1664L1024 1664L1024 1568L928 1568M1568 1568L1568 1664L1664 1664L1664 1568L1568 1568z"/>
<path style="fill:#7f7f7f; stroke:none;" d="M128 1600L128 1601L352 1601L331 1600L286 1600L128 1600z"/>
<path style="fill:#ffffff; stroke:none;" d="M416 1600L416 1632L448 1632L448 1600L416 1600M704 1600L704 1632L736 1632L736 1600L704 1600z"/>
<path style="fill:#010101; stroke:none;" d="M960 1600L960 1632L992 1632L992 1600L960 1600M1184 1600L1184 1632L1216 1632L1216 1696L1248 1696L1248 1632L1216 1632L1216 1600L1184 1600M1600 1600L1600 1632L1632 1632L1632 1600L1600 1600M128 1601L128 1824L352 1824L352 1601L128 1601z"/>
<path style="fill:#ffffff; stroke:none;" d="M160 1632L160 1792L320 1792L320 1632L160 1632z"/>
<path style="fill:#010101; stroke:none;" d="M1344 1632L1344 1664L1376 1664L1376 1696L1472 1696L1472 1664L1440 1664L1440 1632L1408 1632L1408 1664L1376 1664L1376 1632L1344 1632M192 1664L192 1760L288 1760L288 1664L192 1664z"/>
<path style="fill:#ffffff; stroke:none;" d="M864 1664L864 1696L896 1696L896 1664L864 1664M640 1696L640 1728L672 1728L672 1696L640 1696M960 1696L960 1792L992 1792L992 1760L1056 1760L1056 1728L1088 1728L1088 1760L1152 1760L1152 1696L1024 1696L1024 1728L992 1728L992 1696L960 1696M1568 1696L1568 1728L1632 1728L1632 1760L1664 1760L1664 1696L1568 1696z"/>
<path style="fill:#010101; stroke:none;" d="M448 1728L448 1760L480 1760L480 1728L448 1728M1760 1728L1760 1824L1824 1824L1824 1792L1792 1792L1792 1728L1760 1728z"/>
</svg>
