<?xml version="1.0" encoding="iso-8859-1"?>
<!-- Generator: Adobe Illustrator 19.0.0, SVG Export Plug-In . SVG Version: 6.00 Build 0)  -->
<svg version="1.1" id="Layer_1" xmlns="http://www.w3.org/2000/svg" xmlns:xlink="http://www.w3.org/1999/xlink" x="0px" y="0px"
	 viewBox="0 0 511.999 511.999" style="enable-background:new 0 0 511.999 511.999;" xml:space="preserve">
<path style="fill:#D7F3FF;" d="M505.982,255.998c0,30.1-5.315,58.962-15.08,85.683c-34.959,95.869-126.943,164.307-234.898,164.307
	c-107.967,0-199.951-68.438-234.91-164.307c-9.765-26.721-15.08-55.583-15.08-85.683c0-40.935,9.837-79.562,27.274-113.655
	C74.669,61.41,158.861,6.008,256.004,6.008c97.132,0,181.323,55.402,222.716,136.335
	C496.145,176.436,505.982,215.063,505.982,255.998z"/>
<polyline style="fill:#76B793;" points="282.811,219.292 281.38,195.794 257.667,172.083 230.619,195.794 221.227,349.723 
	297.638,349.723 284.681,289.062 282.811,219.292 "/>
<g>
	<path style="fill:#FFFFFF;" d="M144.566,209.022c-0.578,0-1.141,0.059-1.693,0.149c0.006-0.207,0.031-0.409,0.031-0.617
		c0-11.771-9.542-21.312-21.312-21.312c-8.554,0-15.911,5.052-19.304,12.324c-1.323-0.369-2.711-0.581-4.15-0.581
		c-7.01,0-12.919,4.674-14.804,11.073c-1.366-0.657-2.891-1.037-4.507-1.037c-5.756,0-10.423,4.666-10.423,10.423
		c0,5.755,4.666,10.423,10.423,10.423c3.518,0,61.879,0,65.741,0c5.755,0,10.423-4.666,10.423-10.423
		C154.988,213.688,150.321,209.022,144.566,209.022z"/>
	<path style="fill:#FFFFFF;" d="M372.995,269.972c0.664,0,1.31,0.067,1.945,0.172c-0.007-0.238-0.036-0.47-0.036-0.71
		c0-13.514,10.955-24.47,24.47-24.47c9.821,0,18.268,5.8,22.163,14.149c1.519-0.423,3.112-0.666,4.766-0.666
		c8.048,0,14.832,5.367,16.997,12.714c1.568-0.754,3.319-1.189,5.175-1.189c6.609,0,11.967,5.357,11.967,11.967
		c0,6.609-5.357,11.967-11.967,11.967c-4.039,0-71.047,0-75.479,0c-6.609,0-11.967-5.357-11.967-11.967
		C361.028,275.329,366.386,269.972,372.995,269.972z"/>
</g>
<path style="fill:#A3DEBF;" d="M207.962,40.931c2.465,2.465,3.692,5.7,3.692,8.935c0,3.223-1.227,6.458-3.692,8.923
	c-2.465,2.465-5.7,3.704-8.935,3.704c-3.223,0-6.458-1.239-8.923-3.704c-4.931-4.931-4.931-12.928,0-17.858l8.923-8.935
	L207.962,40.931z"/>
<rect x="181.384" y="69.797" style="fill:#76B793;" width="35.283" height="17.63"/>
<path style="fill:#67A881;" d="M197.223,99.857c6.867,0,12.423,5.556,12.423,12.423c0,6.867-5.556,12.423-12.423,12.423
	c-3.704,0-7.023-1.611-9.296-4.173c-1.948-2.189-3.127-5.075-3.127-8.25C184.8,105.412,190.356,99.857,197.223,99.857z"/>
<path style="fill:#A3DEBF;" d="M230.618,195.798l-2.237,36.63c0,0-42.739-43.305-40.454-111.899
	C189.731,152.998,230.618,195.798,230.618,195.798z"/>
<path style="fill:#67A881;" d="M272.455,155.127v10.378l-32.289-14.9c1.972-6.891,8.31-11.929,15.838-11.929
	c4.546,0,8.659,1.84,11.629,4.822C270.615,146.468,272.455,150.581,272.455,155.127z"/>
<path style="fill:#A3DEBF;" d="M272.455,165.505v4.81c0,9.091-7.372,16.463-16.451,16.463c-4.546,0-8.658-1.84-11.641-4.822
	c-2.982-2.982-4.822-7.095-4.822-11.641v-15.188c0-1.563,0.216-3.091,0.625-4.522L272.455,165.505z"/>
<path style="fill:#67A881;" d="M309.543,248.999c5.568,1.227,9.741,6.193,9.741,12.134c0,6.867-5.568,12.423-12.423,12.423
	c-2.465,0-4.762-0.71-6.698-1.96c-3.451-2.201-5.736-6.061-5.736-10.462c0-6.867,5.568-12.423,12.435-12.423
	C307.787,248.711,308.677,248.807,309.543,248.999z"/>
<g>
	<path style="fill:#A3DEBF;" d="M318.442,227.593l-8.899,21.406c-0.866-0.192-1.756-0.289-2.682-0.289
		c-6.867,0-12.435,5.556-12.435,12.423c0,4.401,2.285,8.262,5.736,10.462l-5.099,12.266l-12.615-5.243l-17.906-7.432l-2.79-1.167
		l23.366-56.268L318.442,227.593z"/>
	<polygon style="fill:#A3DEBF;" points="314.209,349.726 314.209,373.97 202.249,373.97 202.249,349.726 221.226,349.726 
		297.637,349.726 	"/>
	<polygon style="fill:#A3DEBF;" points="328.675,373.97 328.675,390.482 314.209,390.482 202.249,390.482 187.782,390.482 
		187.782,373.97 202.249,373.97 314.209,373.97 	"/>
	<polygon style="fill:#A3DEBF;" points="343.587,453.881 343.587,470.38 329.409,470.38 187.049,470.38 172.871,470.38 
		172.871,453.881 196.345,453.881 320.113,453.881 	"/>
	<polygon style="fill:#A3DEBF;" points="320.113,453.881 196.345,453.881 201.203,401.702 202.249,390.482 314.209,390.482 
		315.255,401.702 	"/>
</g>
<polygon style="fill:#76B793;" points="315.255,401.702 201.203,401.702 202.249,390.482 314.209,390.482 "/>
<polygon style="fill:#67A881;" points="282.809,219.296 261.752,270.02 264.542,271.187 222.428,329.932 228.381,232.428 
	281.739,201.786 "/>
<polygon style="fill:#76B793;" points="282.449,278.619 297.637,349.726 221.226,349.726 222.428,329.932 264.542,271.187 "/>
<path style="fill:#A3DEBF;" d="M329.409,470.38l4.425,23.246c-24.496,8.021-50.652,12.362-77.83,12.362
	c-25.627,0-50.352-3.86-73.633-11.028l4.678-24.581L329.409,470.38L329.409,470.38z"/>
<polygon style="fill:#76B793;" points="329.92,481.605 186.538,481.605 187.852,470.385 328.605,470.385 "/>
<g>
	<path style="fill:#333333;" d="M256.001,0C114.842,0,0,114.841,0,255.999s114.842,255.999,255.999,255.999
		s255.999-114.841,255.999-255.999S397.159,0,256.001,0z M189.3,490.707l2.724-14.313h132.408l2.486,13.056
		c-22.452,6.834-46.262,10.525-70.918,10.525C232.884,499.974,210.507,496.742,189.3,490.707z M205.641,49.856
		c0,1.767-0.688,3.427-1.937,4.677c-2.58,2.58-6.774,2.578-9.354,0c-1.249-1.249-1.937-2.91-1.937-4.677
		c0-1.767,0.688-3.427,1.937-4.677l4.677-4.677l4.677,4.677l0,0C204.953,46.429,205.641,48.09,205.641,49.856z M187.402,75.802
		h23.249v5.612h-23.249L187.402,75.802L187.402,75.802z M197.224,105.866c3.536,0,6.413,2.878,6.413,6.413
		c0,3.536-2.878,6.413-6.413,6.413c-3.537,0-6.413-2.878-6.413-6.413C190.81,108.744,193.687,105.866,197.224,105.866z
		 M223.326,216.602c-7.654-10.733-18.191-28.537-24.375-51.858c9.855,15.603,21.135,28.468,25.509,33.257L223.326,216.602z
		 M234.187,236.031l42.144-24.203l0.393,6.457l-20.525,49.427c-0.654,1.575-0.58,3.266,0.055,4.714l-26.549,37.033L234.187,236.031z
		 M300.444,261.133c0-3.537,2.878-6.413,6.413-6.413s6.413,2.878,6.413,6.413s-2.878,6.413-6.413,6.413
		S300.444,264.67,300.444,261.133z M305.629,242.757c-9.595,0.636-17.211,8.624-17.211,18.378c0,4.629,1.727,8.852,4.553,12.094
		l-1.152,2.772l-22.208-9.229l18.755-45.163l22.216,9.229L305.629,242.757z M228.329,332.019l38.321-53.455l10.578,4.395
		l12.977,60.751h-62.589L228.329,332.019z M221.227,355.736h76.411h10.563v12.227h-99.943v-12.227H221.227z M202.245,379.988
		h111.969h8.446v4.478H193.8v-4.478H202.245z M223.265,396.496v13.757c0,3.32,2.693,6.013,6.013,6.013s6.013-2.693,6.013-6.013
		v-13.757h7.276v13.757c0,3.32,2.693,6.013,6.013,6.013s6.013-2.693,6.013-6.013v-13.757h7.276v13.757
		c0,3.32,2.693,6.013,6.013,6.013c3.32,0,6.013-2.693,6.013-6.013v-13.757h7.274v13.757c0,3.32,2.693,6.013,6.013,6.013
		c3.32,0,6.013-2.693,6.013-6.013v-13.757h15.536l4.786,51.369H202.941l4.786-51.369H223.265z M337.579,459.89v4.478H178.88v-4.478
		H337.579z M338.432,485.629l-1.758-9.235h6.917c3.32,0,6.013-2.693,6.013-6.013v-16.504c0-3.32-2.693-6.013-6.013-6.013h-17.998
		l-4.787-51.373h7.865c3.32,0,6.013-2.693,6.013-6.013v-16.504c0-3.32-2.693-6.013-6.013-6.013h-8.446v-18.239
		c0-3.32-2.693-6.013-6.013-6.013H302.5l-11.779-55.145l2.035,0.845c0.754,0.314,1.536,0.462,2.305,0.462
		c2.356,0,4.594-1.395,5.555-3.706l2.874-6.916c1.093,0.203,2.215,0.322,3.366,0.322c10.168,0,18.439-8.271,18.439-18.439
		c0-6.283-3.165-11.837-7.979-15.168l6.677-16.069c0.612-1.473,0.613-3.128,0.005-4.602s-1.779-2.646-3.252-3.258l-32.572-13.529
		l-0.796-13.079c-0.202-3.314-3.055-5.836-6.366-5.636c-3.314,0.202-5.838,3.052-5.636,6.368l0.138,2.269l-40.451,23.23
		l1.556-25.499c0.102-1.67-0.498-3.308-1.654-4.519c-0.35-0.366-31.065-32.819-39.144-60.993c0.463,0.035,0.927,0.071,1.399,0.071
		c10.168,0,18.439-8.271,18.439-18.439c0-7.371-4.357-13.727-10.622-16.676v-2.165h11.625c3.32,0,6.013-2.693,6.013-6.013V69.789
		c0-3.32-2.693-6.013-6.013-6.013h-5.277c0.274-0.244,0.556-0.476,0.819-0.74c3.52-3.52,5.46-8.202,5.46-13.18
		s-1.939-9.66-5.46-13.18l-8.928-8.929c-1.128-1.128-2.656-1.762-4.252-1.762c-1.596,0-3.124,0.634-4.252,1.761l-8.929,8.929
		c-3.52,3.52-5.46,8.202-5.46,13.18s1.94,9.66,5.46,13.18c0.263,0.263,0.545,0.495,0.819,0.74h-5.276
		c-3.32,0-6.013,2.693-6.013,6.013v17.639c0,3.32,2.693,6.013,6.013,6.013h11.625v0.904c-8.143,1.912-14.23,9.218-14.23,17.936
		c0,3.778,1.146,7.294,3.104,10.222c-1.251,61.686,31.919,102.734,40.337,112.129l-5.793,94.934h-0.005l-0.86,14.146h-13.323
		c-3.32,0-6.013,2.693-6.013,6.013v18.239h-8.446c-3.32,0-6.013,2.693-6.013,6.013v16.504c0,3.32,2.693,6.013,6.013,6.013h7.862
		l-4.787,51.373h-17.995c-3.32,0-6.013,2.693-6.013,6.013v16.504c0,3.32,2.693,6.013,6.013,6.013h6.916l-2.038,10.709
		C81.484,454.42,12.026,363.169,12.026,255.999c0-134.528,109.446-243.974,243.975-243.974
		c134.528,0,243.974,109.446,243.974,243.974C499.974,361.61,432.517,451.751,338.432,485.629z"/>
	<path style="fill:#333333;" d="M255.999,132.659c-12.389,0-22.468,10.079-22.468,22.468v15.192
		c0,12.389,10.079,22.469,22.469,22.469c12.389,0,22.468-10.079,22.468-22.469v-15.192
		C278.468,142.739,268.388,132.659,255.999,132.659z M256.001,144.685c5.758,0,10.442,4.684,10.442,10.442v0.982l-17.91-8.268
		C250.43,145.898,253.075,144.685,256.001,144.685z M255.999,180.762c-5.758,0-10.442-4.685-10.442-10.443v-10.605l20.885,9.641
		v0.964C266.443,176.078,261.757,180.762,255.999,180.762z"/>
	<path style="fill:#333333;" d="M289.099,119.191l-8.335,4.637c-1.172-0.931-2.406-1.771-3.674-2.561l5.964-10.743
		c1.611-2.903,0.565-6.564-2.339-8.175c-2.904-1.611-6.564-0.565-8.175,2.339l-6.553,11.804c-1.311-0.338-2.635-0.612-3.973-0.814
		V95.58c0-3.32-2.693-6.013-6.013-6.013c-3.32,0-6.013,2.693-6.013,6.013v20.097c-1.336,0.202-2.659,0.476-3.968,0.814
		l-6.553-11.804c-1.611-2.904-5.273-3.95-8.175-2.339c-2.904,1.611-3.95,5.272-2.339,8.175l5.964,10.743
		c-1.266,0.79-2.501,1.632-3.674,2.563l-8.335-4.637c-2.901-1.614-6.564-0.571-8.177,2.331c-1.615,2.902-0.571,6.564,2.331,8.177
		l12.062,6.71c2.346,1.306,5.274,0.897,7.175-1.003c2.638-2.638,5.717-4.689,9.142-6.092c6.731-2.743,14.398-2.743,21.12-0.004
		c3.433,1.406,6.513,3.457,9.15,6.096c1.157,1.157,2.696,1.762,4.254,1.762c0.999,0,2.005-0.249,2.921-0.759l12.062-6.71
		c2.902-1.615,3.946-5.276,2.331-8.177C295.661,118.62,291.998,117.576,289.099,119.191z"/>
	<path style="fill:#333333;" d="M148.443,203.471c-2.388-12.647-13.52-22.243-26.852-22.243c-8.998,0-17.383,4.501-22.436,11.768
		c-7.828-0.387-15.151,3.646-19.188,10.051c-0.379-0.026-0.759-0.04-1.141-0.04c-9.063,0-16.436,7.373-16.436,16.436
		c0,9.063,7.373,16.436,16.436,16.436h65.741c9.063,0,16.436-7.373,16.436-16.436C161.001,211.717,155.64,205.218,148.443,203.471z
		 M144.566,223.854H78.825c-2.43,0-4.41-1.978-4.41-4.41s1.978-4.41,4.41-4.41c0.652,0,1.292,0.149,1.9,0.441
		c1.589,0.765,3.435,0.792,5.048,0.077c1.613-0.716,2.83-2.104,3.328-3.797c1.405-4.773,6.411-7.838,11.572-6.4
		c2.833,0.79,5.819-0.586,7.064-3.249c2.509-5.378,7.947-8.853,13.855-8.853c8.419,0,15.269,6.835,15.297,15.247
		c-0.011,0.166-0.022,0.332-0.026,0.499c-0.051,1.794,0.702,3.516,2.053,4.697c1.35,1.181,3.157,1.697,4.931,1.407
		c0.289-0.048,0.524-0.071,0.722-0.071c2.43,0,4.41,1.978,4.41,4.41C148.976,221.876,146.997,223.854,144.566,223.854z"/>
	<path style="fill:#333333;" d="M448.474,263.959c-0.599,0-1.193,0.029-1.781,0.088c-4.486-7.491-12.99-12.19-22.009-11.554
		c-5.604-8.348-15.104-13.541-25.31-13.541c-15.072,0-27.623,10.995-30.056,25.385c-8.156,1.703-14.301,8.947-14.301,17.601
		c0,9.914,8.066,17.978,17.98,17.978h75.479c9.914,0,17.98-8.066,17.98-17.978C466.454,272.025,458.388,263.959,448.474,263.959z
		 M448.474,287.892h-75.479c-3.283,0-5.954-2.671-5.954-5.953c0-3.282,2.671-5.954,5.954-5.954c0.274,0,0.592,0.03,0.972,0.093
		c1.773,0.291,3.582-0.226,4.933-1.409c1.352-1.183,2.103-2.908,2.05-4.703c-0.006-0.183-0.017-0.363-0.034-0.53
		c0-10.177,8.28-18.457,18.457-18.457c7.128,0,13.689,4.192,16.715,10.679c1.243,2.665,4.232,4.039,7.065,3.249
		c6.371-1.777,12.631,2.02,14.38,7.955c0.499,1.692,1.715,3.08,3.327,3.795c1.613,0.717,3.457,0.688,5.047-0.077
		c0.82-0.394,1.684-0.595,2.568-0.595c3.283,0,5.954,2.671,5.954,5.954S451.757,287.892,448.474,287.892z"/>
</g>
<g>
</g>
<g>
</g>
<g>
</g>
<g>
</g>
<g>
</g>
<g>
</g>
<g>
</g>
<g>
</g>
<g>
</g>
<g>
</g>
<g>
</g>
<g>
</g>
<g>
</g>
<g>
</g>
<g>
</g>
</svg>
